<svg width="420" height="407" viewBox="0 0 420 407" fill="none" xmlns="http://www.w3.org/2000/svg">
<path d="M124.267 176.326C124.267 176.326 112.871 111.285 124.267 69.2465C131.597 42.2353 158.947 18.3075 178.166 27.5784C178.166 27.5784 217.487 -3.58527 263.789 22.1721C320.994 54.0141 295.39 175.75 295.39 175.75L124.267 176.326Z" fill="#725858"/>
<path d="M124.267 178.381C123.778 178.388 123.302 178.22 122.925 177.908C122.549 177.595 122.296 177.158 122.213 176.675C121.762 174.003 110.879 110.709 122.213 68.7121C127.1 50.7662 140.94 33.4371 155.929 26.5917C163.813 22.9738 171.349 22.4804 177.858 25.2144C184.449 20.5481 221.922 -3.44137 264.713 20.3837C288.798 33.766 302.042 65.053 303.028 110.832C303.338 132.738 301.433 154.619 297.34 176.141C297.244 176.612 296.986 177.035 296.611 177.335C296.236 177.635 295.767 177.795 295.287 177.785L124.164 178.361L124.267 178.381ZM169.09 27.599C165.141 27.6919 161.257 28.6238 157.695 30.333C143.753 36.7055 130.817 52.9452 126.238 69.781C116.115 107.153 124.328 163.745 126.012 174.27L293.706 173.694C296.437 159.202 314.485 52.7396 262.783 23.9605C218.267 -0.707351 179.829 28.8941 179.439 29.1819C179.149 29.4012 178.807 29.5395 178.446 29.5829C178.085 29.6262 177.719 29.573 177.386 29.4285C174.798 28.1885 171.959 27.5624 169.09 27.599Z" fill="black"/>
<path d="M262.105 285.501H148.475V367.152H262.105V285.501Z" fill="#FFBC0E"/>
<path d="M262.105 369.208H148.475C147.931 369.208 147.408 368.991 147.023 368.605C146.638 368.22 146.422 367.697 146.422 367.152V285.604C146.422 285.059 146.638 284.536 147.023 284.151C147.408 283.765 147.931 283.548 148.475 283.548H262.105C262.65 283.548 263.172 283.765 263.557 284.151C263.942 284.536 264.159 285.059 264.159 285.604V367.255C264.132 367.782 263.904 368.279 263.522 368.642C263.14 369.006 262.633 369.208 262.105 369.208ZM150.529 365.096H260.052V287.66H150.529V365.096Z" fill="black"/>
<path d="M210.855 388.736C210.855 388.736 136.504 400.248 135.17 390.792C133.835 381.336 163.074 350.892 200.876 357.141L210.855 388.736Z" fill="#FFC9B0"/>
<path d="M151.761 396.609C143.773 396.609 137.387 395.91 134.923 394.019C134.451 393.69 134.049 393.27 133.742 392.783C133.435 392.295 133.23 391.751 133.137 391.182C132.542 387.071 136.135 380.637 142.726 374.182C154.84 362.342 176.565 351.138 201.225 355.229C201.597 355.29 201.946 355.453 202.232 355.7C202.518 355.946 202.731 356.267 202.847 356.627L212.826 388.181C212.914 388.465 212.939 388.765 212.9 389.059C212.861 389.354 212.759 389.636 212.6 389.887C212.445 390.137 212.239 390.351 211.994 390.514C211.75 390.677 211.473 390.786 211.183 390.833C206.214 391.532 173.012 396.609 151.761 396.609ZM190.773 358.477C173.897 358.722 157.746 365.389 145.601 377.122C139.646 382.939 136.874 388.305 137.203 390.607C138.866 393.279 162.561 394.04 208.186 387.133L199.315 359.094C196.502 358.657 193.661 358.43 190.814 358.415L190.773 358.477Z" fill="black"/>
<path d="M207.118 383.35L320.851 361.458C323.606 360.465 326.139 358.938 328.304 356.964C330.47 354.99 332.224 352.607 333.468 349.953C334.712 347.298 335.42 344.424 335.552 341.495C335.684 338.566 335.238 335.64 334.238 332.884L333.828 331.712C331.816 326.147 327.68 321.609 322.328 319.096C316.976 316.583 310.847 316.3 305.286 318.31L184.634 344.54L207.118 383.35Z" fill="#F56132"/>
<path d="M207.118 385.406C206.756 385.408 206.4 385.313 206.086 385.133C205.773 384.952 205.512 384.692 205.331 384.378L182.868 345.588C182.708 345.309 182.615 344.997 182.597 344.675C182.579 344.354 182.637 344.033 182.766 343.738C182.894 343.44 183.091 343.176 183.341 342.969C183.591 342.762 183.886 342.617 184.203 342.546L304.732 316.439C310.792 314.291 317.454 314.628 323.266 317.377C329.078 320.127 333.568 325.066 335.758 331.116L336.168 332.288C337.257 335.295 337.743 338.488 337.598 341.683C337.453 344.878 336.681 348.013 335.325 350.909C333.969 353.806 332.056 356.406 329.696 358.561C327.336 360.717 324.574 362.386 321.569 363.472C321.467 363.491 321.363 363.491 321.261 363.472L207.487 385.365L207.118 385.406ZM187.837 345.979L208.165 381.048L320.317 359.484C325.323 357.628 329.392 353.865 331.638 349.017C333.885 344.169 334.125 338.629 332.308 333.604L331.897 332.432C330.067 327.382 326.311 323.266 321.454 320.984C316.596 318.703 311.033 318.444 305.985 320.262H305.718L187.837 345.979Z" fill="black"/>
<path d="M229.807 358.662C229.807 358.662 304.527 367.255 311.939 370.873C317.175 373.442 266.643 403.126 243.359 392.087C231.347 386.413 220.875 381.644 220.875 381.644L229.807 358.662Z" fill="#FFC9B0"/>
<path d="M255.617 396.609C251.076 396.737 246.562 395.867 242.394 394.06C230.546 388.448 220.054 383.659 219.951 383.618C219.469 383.401 219.089 383.006 218.89 382.516C218.691 382.026 218.689 381.478 218.883 380.986L227.897 358.004C228.062 357.58 228.364 357.222 228.754 356.988C229.144 356.753 229.601 356.655 230.053 356.709C237.733 357.593 305.348 365.466 312.761 369.043C313.098 369.209 313.398 369.443 313.642 369.73C313.885 370.017 314.068 370.351 314.177 370.711C314.287 371.072 314.322 371.451 314.279 371.825C314.237 372.199 314.118 372.561 313.931 372.887C310.851 379.239 278.922 396.609 255.617 396.609ZM223.421 380.678C226.912 382.281 235.145 386.064 244.159 390.34C252.208 394.163 265.391 393.074 281.119 387.256C295.205 382.117 306.046 375.272 309.229 372.25C299.64 369.516 258.882 364.212 231.039 360.985L223.421 380.678Z" fill="black"/>
<path d="M225.228 394.554L104.945 365.281C102.116 364.536 99.4607 363.239 97.1328 361.465C94.8048 359.69 92.8495 357.474 91.3788 354.942C89.9082 352.409 88.9511 349.612 88.5625 346.708C88.1738 343.805 88.3613 340.854 89.114 338.023L89.422 336.81C90.1711 333.978 91.4702 331.322 93.2451 328.992C95.0199 326.663 97.2358 324.707 99.7661 323.235C102.296 321.763 105.092 320.805 107.992 320.415C110.892 320.024 113.841 320.21 116.669 320.961L235.618 355.291L225.228 394.554Z" fill="#F56132"/>
<path d="M225.228 396.609H224.735L104.452 367.337C101.359 366.52 98.4568 365.1 95.9115 363.16C93.3663 361.22 91.2279 358.796 89.6185 356.028C88.0092 353.26 86.9604 350.202 86.5321 347.028C86.1037 343.854 86.3043 340.626 87.1223 337.53L87.4303 336.338C88.2464 333.243 89.6635 330.341 91.6007 327.795C93.5378 325.249 95.957 323.111 98.72 321.501C101.483 319.892 104.536 318.843 107.704 318.416C110.872 317.988 114.093 318.189 117.183 319.008L236.172 353.358C236.685 353.507 237.12 353.85 237.384 354.315C237.649 354.779 237.722 355.328 237.589 355.846L227.199 395.129C227.075 395.556 226.815 395.931 226.46 396.198C226.105 396.465 225.672 396.609 225.228 396.609ZM110.941 322.256C106.48 322.267 102.148 323.751 98.617 326.48C95.0859 329.208 92.5537 333.028 91.4137 337.345L91.0852 338.537C89.7192 343.73 90.465 349.253 93.1592 353.896C95.8533 358.539 100.276 361.923 105.458 363.308L223.75 392.087L233.113 356.709L116.074 322.935C114.401 322.474 112.676 322.232 110.941 322.215V322.256Z" fill="black"/>
<path d="M172.396 191.332H252.065C258.659 191.332 264.984 193.955 269.647 198.623C274.311 203.292 276.93 209.623 276.93 216.226V310.93H147.572V216.226C147.572 209.631 150.186 203.305 154.84 198.638C159.495 193.97 165.809 191.343 172.396 191.332Z" fill="#FFBC0E"/>
<path d="M276.91 312.965H147.551C147.007 312.965 146.484 312.748 146.099 312.363C145.714 311.977 145.498 311.454 145.498 310.909V216.226C145.503 209.084 148.338 202.235 153.381 197.183C158.424 192.131 165.262 189.287 172.396 189.276H252.065C259.2 189.282 266.042 192.123 271.086 197.177C276.13 202.23 278.963 209.082 278.963 216.226V310.909C278.963 311.454 278.747 311.977 278.362 312.363C277.977 312.748 277.454 312.965 276.91 312.965ZM149.605 308.854H274.856V216.226C274.851 210.174 272.449 204.371 268.176 200.09C263.904 195.809 258.11 193.398 252.065 193.387H172.396C166.351 193.398 160.557 195.809 156.285 200.09C152.012 204.371 149.61 210.174 149.605 216.226V308.854Z" fill="black"/>
<path d="M200.773 184.199H220.813V195.731C220.813 197.988 219.918 200.153 218.324 201.749C216.729 203.345 214.567 204.241 212.313 204.241H209.294C207.04 204.241 204.878 203.345 203.283 201.749C201.689 200.153 200.794 197.988 200.794 195.731V184.199H200.773Z" fill="#FFC9B0"/>
<path d="M212.292 206.318H209.274C206.475 206.318 203.79 205.204 201.811 203.223C199.832 201.241 198.72 198.554 198.72 195.751V184.199C198.72 183.653 198.936 183.131 199.321 182.745C199.706 182.36 200.228 182.143 200.773 182.143H220.793C221.337 182.143 221.86 182.36 222.245 182.745C222.63 183.131 222.846 183.653 222.846 184.199V195.751C222.841 198.552 221.727 201.236 219.749 203.217C217.771 205.197 215.09 206.312 212.292 206.318ZM202.826 186.254V195.751C202.826 197.463 203.506 199.105 204.715 200.316C205.924 201.526 207.564 202.206 209.274 202.206H212.292C214 202.201 215.637 201.519 216.845 200.31C218.053 199.1 218.734 197.462 218.74 195.751V186.254H202.826Z" fill="black"/>
<path d="M153.526 148.903C164.277 148.903 172.992 141.384 172.992 132.108C172.992 122.833 164.277 115.314 153.526 115.314C142.776 115.314 134.061 122.833 134.061 132.108C134.061 141.384 142.776 148.903 153.526 148.903Z" fill="#FFC9B0"/>
<path d="M153.526 150.959C141.658 150.959 132.008 142.489 132.008 132.108C132.008 121.727 141.658 113.258 153.526 113.258C165.394 113.258 175.066 121.707 175.066 132.108C175.066 142.51 165.394 150.959 153.526 150.959ZM153.526 117.369C143.937 117.369 136.114 123.989 136.114 132.108C136.114 140.228 143.937 146.847 153.526 146.847C163.115 146.847 170.938 140.228 170.938 132.108C170.938 123.989 163.136 117.369 153.526 117.369Z" fill="black"/>
<path d="M266.992 148.903C277.743 148.903 286.458 141.384 286.458 132.108C286.458 122.833 277.743 115.314 266.992 115.314C256.242 115.314 247.527 122.833 247.527 132.108C247.527 141.384 256.242 148.903 266.992 148.903Z" fill="#FFC9B0"/>
<path d="M266.992 150.959C255.124 150.959 245.474 142.489 245.474 132.108C245.474 121.727 255.124 113.258 266.992 113.258C278.86 113.258 288.511 121.707 288.511 132.108C288.511 142.51 278.86 150.959 266.992 150.959ZM266.992 117.369C257.403 117.369 249.58 123.989 249.58 132.108C249.58 140.228 257.403 146.847 266.992 146.847C276.581 146.847 284.404 140.228 284.404 132.108C284.404 123.989 276.602 117.369 266.992 117.369Z" fill="black"/>
<path d="M210.773 186.933C203.064 186.933 195.432 185.412 188.311 182.459C181.189 179.505 174.719 175.175 169.27 169.718C163.82 164.26 159.498 157.781 156.55 150.651C153.602 143.52 152.086 135.879 152.089 128.162V100.862C152.089 86.7402 173.608 60.3661 187.714 60.3661C187.714 60.3661 217.918 105.591 269.477 88.1586V128.059C269.49 135.785 267.982 143.439 265.038 150.581C262.094 157.723 257.772 164.214 252.319 169.683C246.867 175.151 240.391 179.489 233.261 182.449C226.132 185.409 218.49 186.933 210.773 186.933Z" fill="#FFC9B0"/>
<path d="M210.773 188.988C194.667 188.967 179.228 182.55 167.842 171.147C156.456 159.744 150.052 144.285 150.036 128.162V100.862C150.036 85.8357 172.191 58.3105 187.714 58.3105C188.05 58.31 188.382 58.3922 188.679 58.5499C188.976 58.7076 189.23 58.936 189.418 59.215C190.63 61.0034 219.397 102.856 268.82 86.2057C269.131 86.1003 269.464 86.0714 269.789 86.1215C270.114 86.1716 270.423 86.2991 270.688 86.4935C270.972 86.6901 271.202 86.9552 271.356 87.2642C271.51 87.5732 271.584 87.9161 271.571 88.2613V128.162C271.555 144.296 265.143 159.764 253.743 171.169C242.344 182.574 226.889 188.983 210.773 188.988ZM186.708 62.4834C175.168 63.7579 154.142 86.2057 154.142 100.862V128.059C153.999 135.596 155.358 143.087 158.14 150.092C160.922 157.098 165.071 163.478 170.345 168.859C175.619 174.24 181.911 178.515 188.855 181.433C195.798 184.351 203.253 185.854 210.783 185.854C218.313 185.854 225.768 184.351 232.711 181.433C239.654 178.515 245.947 174.24 251.221 168.859C256.494 163.478 260.644 157.098 263.426 150.092C266.208 143.087 267.567 135.596 267.423 128.059V91.057C220.875 104.912 191.492 68.9382 186.708 62.4834Z" fill="black"/>
<path d="M183.607 124.955C186.612 124.955 189.049 122.516 189.049 119.507C189.049 116.499 186.612 114.06 183.607 114.06C180.602 114.06 178.166 116.499 178.166 119.507C178.166 122.516 180.602 124.955 183.607 124.955Z" fill="black"/>
<path d="M239.663 124.955C242.668 124.955 245.104 122.516 245.104 119.507C245.104 116.499 242.668 114.06 239.663 114.06C236.658 114.06 234.221 116.499 234.221 119.507C234.221 122.516 236.658 124.955 239.663 124.955Z" fill="black"/>
<path d="M232.189 145.82C231.851 151.266 229.452 156.378 225.481 160.115C221.509 163.852 216.264 165.933 210.814 165.933C205.363 165.933 200.118 163.852 196.146 160.115C192.175 156.378 189.776 151.266 189.439 145.82H232.189Z" fill="white"/>
<path d="M210.773 169.275C204.573 169.242 198.637 166.759 194.257 162.366C189.877 157.974 187.407 152.027 187.385 145.82C187.385 145.274 187.602 144.752 187.987 144.366C188.372 143.981 188.894 143.764 189.439 143.764H232.271C232.815 143.764 233.338 143.981 233.723 144.366C234.108 144.752 234.324 145.274 234.324 145.82C234.316 148.908 233.7 151.964 232.512 154.814C231.325 157.664 229.587 160.252 227.401 162.43C225.214 164.608 222.62 166.334 219.767 167.508C216.913 168.683 213.857 169.283 210.773 169.275ZM191.492 147.875C192.007 152.627 194.257 157.02 197.81 160.212C201.363 163.404 205.968 165.17 210.742 165.17C215.516 165.17 220.121 163.404 223.674 160.212C227.227 157.02 229.477 152.627 229.992 147.875H191.492Z" fill="black"/>
<path d="M210.506 139.858C208.711 139.849 206.92 139.705 205.147 139.427C204.881 139.379 204.627 139.28 204.4 139.135C204.172 138.99 203.976 138.801 203.821 138.579C203.667 138.358 203.558 138.108 203.5 137.844C203.442 137.581 203.436 137.308 203.483 137.042C203.53 136.776 203.629 136.522 203.775 136.294C203.92 136.067 204.108 135.87 204.33 135.715C204.551 135.561 204.8 135.451 205.064 135.393C205.327 135.335 205.6 135.33 205.865 135.377C208.398 135.799 210.979 135.84 213.524 135.5C213.524 133.691 211.615 128.182 208.966 123.166C208.713 122.684 208.661 122.12 208.823 121.6C208.985 121.08 209.346 120.645 209.828 120.391C210.068 120.267 210.33 120.19 210.599 120.167C210.869 120.144 211.14 120.175 211.397 120.257C211.655 120.339 211.894 120.471 212.1 120.646C212.307 120.821 212.476 121.035 212.6 121.275C214.53 124.975 218.76 133.959 217.22 137.576C217.019 138.038 216.715 138.447 216.33 138.772C215.945 139.096 215.491 139.327 215.002 139.447C213.525 139.759 212.016 139.897 210.506 139.858Z" fill="black"/>
<path d="M168.782 107.009C167.693 107.009 166.649 106.576 165.879 105.805C165.109 105.034 164.676 103.988 164.676 102.898C164.676 101.807 165.109 100.761 165.879 99.9905C166.649 99.2194 167.693 98.7863 168.782 98.7863L194.654 98.5396C195.734 98.5706 196.76 99.0138 197.524 99.7782C198.287 100.543 198.73 101.57 198.761 102.651C198.761 103.741 198.328 104.787 197.558 105.558C196.788 106.329 195.743 106.762 194.654 106.762L168.741 107.091L168.782 107.009Z" fill="black"/>
<path d="M255.145 106.536L229.232 106.372C228.143 106.372 227.098 105.938 226.328 105.167C225.558 104.396 225.125 103.351 225.125 102.26C225.125 101.17 225.558 100.124 226.328 99.3532C227.098 98.5822 228.143 98.149 229.232 98.149L255.145 98.3135C256.234 98.3135 257.278 98.7466 258.048 99.5177C258.819 100.289 259.251 101.334 259.251 102.425C259.251 103.515 258.819 104.561 258.048 105.332C257.278 106.103 256.234 106.536 255.145 106.536Z" fill="black"/>
<path d="M340.768 201.178L327.729 194.23L212.23 210.799L96.7318 194.23L83.6933 201.178L96.7318 303.982L212.23 320.55L327.729 303.982L340.768 201.178Z" fill="white"/>
<path d="M212.025 322.606L96.5265 306.037C96.0827 305.974 95.6719 305.767 95.3567 305.447C95.0416 305.128 94.8394 304.714 94.7812 304.269L81.7427 201.487C81.6936 201.076 81.7692 200.661 81.9597 200.294C82.1501 199.927 82.4466 199.627 82.8104 199.431L95.8489 192.483C96.2378 192.272 96.6843 192.193 97.1219 192.257L212.313 208.702L327.524 192.257C327.955 192.197 328.393 192.277 328.776 192.483L341.815 199.431C342.179 199.627 342.475 199.927 342.666 200.294C342.856 200.661 342.932 201.076 342.883 201.487L329.844 304.269C329.786 304.714 329.584 305.128 329.269 305.447C328.953 305.767 328.543 305.974 328.099 306.037L212.518 322.606H212.025ZM98.5798 302.173L212.231 318.495L325.881 302.193L338.55 202.35L327.36 196.389L212.518 212.834C212.327 212.855 212.134 212.855 211.943 212.834L97.1219 196.389L85.9109 202.35L98.5798 302.173Z" fill="black"/>
<path d="M195.065 341.765L83.6933 323.325V201.178L195.065 219.618V341.765Z" fill="white"/>
<path d="M195.065 343.82H194.716L83.3648 325.319C82.8789 325.241 82.4375 324.99 82.1209 324.612C81.8043 324.235 81.6337 323.756 81.64 323.264V201.178C81.6425 200.88 81.7099 200.585 81.8376 200.316C81.9652 200.046 82.1501 199.807 82.3792 199.616C82.6054 199.421 82.8714 199.278 83.1586 199.196C83.4459 199.114 83.7475 199.096 84.0424 199.143L195.393 217.644C195.879 217.723 196.321 217.974 196.637 218.351C196.954 218.729 197.124 219.207 197.118 219.7V341.847C197.116 342.145 197.048 342.44 196.921 342.71C196.793 342.979 196.608 343.218 196.379 343.409C196.001 343.693 195.537 343.839 195.065 343.82ZM85.7466 321.578L193.012 339.339V221.365L85.7466 203.604V321.578Z" fill="black"/>
<path d="M340.768 323.325L229.417 341.765V219.618L340.768 201.178L340.768 323.325Z" fill="white"/>
<path d="M229.417 343.82C228.872 343.82 228.35 343.604 227.965 343.218C227.58 342.833 227.363 342.31 227.363 341.765V219.618C227.356 219.128 227.524 218.652 227.836 218.275C228.149 217.898 228.586 217.645 229.068 217.562L340.439 199.061C340.731 199.017 341.028 199.037 341.312 199.118C341.595 199.2 341.858 199.342 342.082 199.534C342.311 199.725 342.496 199.964 342.623 200.233C342.751 200.503 342.819 200.798 342.821 201.096V323.243C342.827 323.736 342.657 324.214 342.34 324.592C342.023 324.969 341.582 325.22 341.096 325.299L229.745 343.8L229.417 343.82ZM231.47 221.365V339.339L338.714 321.578V203.604L231.47 221.365Z" fill="black"/>
<path d="M229.417 219.618H195.065V341.765H229.417V219.618Z" fill="white"/>
<path d="M229.417 343.82H195.065C194.52 343.82 193.998 343.604 193.613 343.218C193.228 342.833 193.012 342.31 193.012 341.765V219.618C193.012 219.072 193.228 218.55 193.613 218.164C193.998 217.779 194.52 217.562 195.065 217.562H229.417C229.961 217.562 230.484 217.779 230.869 218.164C231.254 218.55 231.47 219.072 231.47 219.618V341.765C231.47 342.31 231.254 342.833 230.869 343.218C230.484 343.604 229.961 343.82 229.417 343.82ZM197.118 339.709H227.363V221.673H197.118V339.709Z" fill="black"/>
<path d="M251.798 238.139V271.482L324.198 257.976V225.517L251.798 238.139Z" fill="white"/>
<path d="M251.798 273.517C251.318 273.518 250.853 273.35 250.484 273.044C250.252 272.851 250.065 272.609 249.938 272.335C249.81 272.062 249.744 271.763 249.744 271.461V238.139C249.737 237.649 249.905 237.173 250.218 236.796C250.53 236.419 250.967 236.167 251.449 236.083L323.848 223.482C324.146 223.431 324.451 223.446 324.742 223.526C325.033 223.606 325.302 223.749 325.532 223.945C325.761 224.142 325.945 224.386 326.069 224.661C326.193 224.937 326.255 225.236 326.251 225.538V257.997C326.26 258.481 326.098 258.952 325.793 259.328C325.489 259.704 325.062 259.96 324.588 260.052L252.167 273.558L251.798 273.517ZM253.851 239.866V268.994L322.144 256.27V228.046L253.851 239.866Z" fill="black"/>
<path d="M212.23 221.673C211.686 221.673 211.164 221.457 210.779 221.071C210.394 220.686 210.177 220.163 210.177 219.618V210.799C210.177 210.254 210.394 209.731 210.779 209.345C211.164 208.96 211.686 208.743 212.23 208.743C212.775 208.743 213.297 208.96 213.682 209.345C214.067 209.731 214.284 210.254 214.284 210.799V219.618C214.284 220.163 214.067 220.686 213.682 221.071C213.297 221.457 212.775 221.673 212.23 221.673Z" fill="black"/>
<path d="M181.226 329.554H180.835L159.05 325.443C158.78 325.393 158.523 325.29 158.293 325.141C158.063 324.991 157.865 324.798 157.709 324.572C157.554 324.345 157.444 324.091 157.387 323.822C157.33 323.554 157.326 323.277 157.376 323.007C157.426 322.737 157.529 322.479 157.678 322.249C157.827 322.019 158.02 321.82 158.246 321.665C158.472 321.509 158.727 321.399 158.995 321.342C159.263 321.285 159.54 321.281 159.809 321.331L181.595 325.443C181.865 325.467 182.127 325.544 182.367 325.67C182.607 325.796 182.819 325.967 182.993 326.176C183.166 326.384 183.297 326.624 183.378 326.883C183.459 327.141 183.488 327.413 183.464 327.683C183.439 327.953 183.362 328.216 183.237 328.456C183.111 328.696 182.939 328.909 182.732 329.083C182.524 329.256 182.284 329.387 182.025 329.468C181.767 329.549 181.495 329.578 181.226 329.554Z" fill="black"/>
<path d="M91.6999 293.628L75.8472 296.05C73.4258 296.421 71.7625 298.686 72.1322 301.11L72.4451 303.162C72.8148 305.586 75.0774 307.252 77.4988 306.882L93.3515 304.459C95.7729 304.089 97.4362 301.823 97.0665 299.399L96.7535 297.347C96.3839 294.923 94.1213 293.257 91.6999 293.628Z" fill="#FFC9B0"/>
<path d="M76.8558 308.977C75.305 308.97 73.8076 308.41 72.6331 307.396C71.4586 306.382 70.6842 304.982 70.4494 303.447L70.1209 301.392C69.8614 299.685 70.2886 297.946 71.3087 296.555C72.3288 295.163 73.8585 294.234 75.5622 293.971L91.4137 291.545C93.1147 291.291 94.847 291.722 96.2321 292.742C97.6171 293.763 98.5423 295.291 98.8056 296.992L99.1342 299.048C99.3888 300.753 98.9608 302.489 97.9433 303.879C97.4412 304.569 96.8067 305.151 96.0769 305.593C95.347 306.034 94.5365 306.325 93.6929 306.448L77.8413 308.874C77.5167 308.939 77.1868 308.973 76.8558 308.977ZM92.0297 295.636L76.1987 298.061C75.8847 298.102 75.5818 298.204 75.3079 298.363C75.0339 298.522 74.7943 298.734 74.6032 298.987C74.412 299.239 74.273 299.528 74.1944 299.835C74.1158 300.142 74.0992 300.461 74.1454 300.775L74.4534 302.83C74.4962 303.146 74.601 303.449 74.7618 303.724C74.9226 303.998 75.1362 304.238 75.3902 304.429C75.6442 304.62 75.9335 304.759 76.2415 304.838C76.5495 304.916 76.8699 304.933 77.1843 304.886L93.0153 302.481C93.3296 302.433 93.6312 302.322 93.9026 302.157C94.174 301.991 94.4098 301.773 94.5964 301.515C94.7823 301.264 94.9163 300.978 94.9904 300.675C95.0644 300.371 95.0771 300.056 95.0276 299.747L94.7196 297.691C94.628 297.057 94.2893 296.485 93.7776 296.1C93.266 295.714 92.6228 295.548 91.9886 295.636H92.0297Z" fill="black"/>
<path d="M89.717 280.593L73.8643 283.015C71.4429 283.386 69.7796 285.651 70.1493 288.075L70.4622 290.127C70.8319 292.552 73.0945 294.217 75.5159 293.847L91.3686 291.424C93.79 291.054 95.4533 288.788 95.0836 286.364L94.7707 284.312C94.401 281.888 92.1384 280.222 89.717 280.593Z" fill="#FFC9B0"/>
<path d="M74.8641 295.882C73.3133 295.876 71.8159 295.315 70.6414 294.301C69.4669 293.288 68.6925 291.887 68.4577 290.353L68.1497 288.297C68.0185 287.452 68.0552 286.589 68.2579 285.758C68.4605 284.927 68.8251 284.145 69.3307 283.455C69.8362 282.766 70.4728 282.183 71.2039 281.74C71.935 281.298 72.7463 281.004 73.591 280.876L89.422 278.45C91.1254 278.196 92.8602 278.626 94.2485 279.646C95.6368 280.667 96.5662 282.195 96.8345 283.898L97.1425 285.954C97.396 287.657 96.9661 289.391 95.9465 290.777C94.927 292.164 93.4007 293.09 91.7012 293.354L75.8496 295.882C75.5218 295.913 75.1919 295.913 74.8641 295.882ZM90.038 282.541L74.207 284.967C73.8973 285.013 73.5998 285.12 73.3318 285.283C73.0639 285.445 72.831 285.659 72.6465 285.912C72.2677 286.418 72.1052 287.054 72.1947 287.68L72.5028 289.736C72.5994 290.368 72.9392 290.937 73.4496 291.321C73.9601 291.705 74.6004 291.874 75.2337 291.792L91.0852 289.366C91.4001 289.323 91.7034 289.218 91.9775 289.057C92.2516 288.896 92.491 288.682 92.682 288.428C92.873 288.174 93.0117 287.884 93.09 287.576C93.1684 287.268 93.1849 286.947 93.1385 286.632L92.8305 284.576C92.7389 283.942 92.4003 283.37 91.8886 282.985C91.3769 282.599 90.7337 282.433 90.0996 282.521L90.038 282.541Z" fill="black"/>
<path d="M87.7923 268.366L71.9163 270.774C69.4913 271.142 67.8234 273.408 68.1908 275.836L68.5019 277.891C68.8693 280.319 71.133 281.989 73.5579 281.621L89.4339 279.213C91.8589 278.845 93.5269 276.579 93.1595 274.151L92.8484 272.096C92.481 269.668 90.2173 267.998 87.7923 268.366Z" fill="#FFC9B0"/>
<path d="M72.8723 282.911C71.3216 282.905 69.8242 282.344 68.6497 281.33C67.4752 280.316 66.7008 278.916 66.466 277.382L66.158 275.326C65.9041 273.62 66.3335 271.884 67.3526 270.494C68.3718 269.104 69.8981 268.173 71.5993 267.905L87.4303 265.479C89.133 265.222 90.868 265.651 92.2556 266.672C92.9477 267.173 93.533 267.808 93.9772 268.538C94.4214 269.269 94.7157 270.081 94.8428 270.927L95.1508 272.982C95.4047 274.688 94.9753 276.424 93.9562 277.814C92.9371 279.204 91.4107 280.135 89.7095 280.403L73.858 282.808C73.5333 282.873 73.2034 282.908 72.8723 282.911ZM88.0669 269.549L72.2153 271.975C71.9055 272.021 71.6081 272.129 71.3402 272.291C71.0723 272.453 70.8393 272.667 70.6548 272.921C70.4656 273.174 70.3284 273.463 70.2508 273.77C70.1733 274.077 70.1571 274.396 70.203 274.709L70.5316 276.765C70.5718 277.079 70.6743 277.382 70.833 277.657C70.9917 277.931 71.2034 278.171 71.4558 278.362C71.7081 278.554 71.9961 278.693 72.3028 278.771C72.6095 278.85 72.9287 278.867 73.242 278.82L89.0935 276.395C89.4084 276.352 89.7117 276.247 89.9858 276.086C90.2598 275.925 90.4993 275.711 90.6903 275.457C90.8813 275.203 91.02 274.913 91.0983 274.605C91.1767 274.296 91.1932 273.975 91.1468 273.661L90.8388 271.605C90.7636 271.033 90.4821 270.508 90.0471 270.129C89.6122 269.751 89.0539 269.545 88.4775 269.549H88.0669Z" fill="black"/>
<path d="M85.7307 254.523L69.878 256.946C67.4566 257.316 65.7933 259.581 66.163 262.005L66.476 264.058C66.8456 266.482 69.1083 268.147 71.5297 267.777L87.3823 265.354C89.8037 264.984 91.467 262.719 91.0974 260.294L90.7844 258.242C90.4147 255.818 88.1521 254.153 85.7307 254.523Z" fill="#FFC9B0"/>
<path d="M70.9012 269.878C69.3499 269.877 67.85 269.322 66.6717 268.312C65.4934 267.302 64.7141 265.904 64.4743 264.369L64.1663 262.314C63.9124 260.608 64.3418 258.871 65.3609 257.482C66.38 256.092 67.9064 255.161 69.6076 254.893L85.4386 252.488C86.2835 252.35 87.1472 252.383 87.9793 252.584C88.8114 252.784 89.5954 253.149 90.2853 253.656C90.9753 254.163 91.5575 254.802 91.998 255.537C92.4385 256.272 92.7285 257.087 92.8511 257.935L93.159 259.991C93.2903 260.836 93.2536 261.699 93.0509 262.53C92.8483 263.36 92.4837 264.143 91.9781 264.833C91.4726 265.522 90.8359 266.105 90.1048 266.547C89.3737 266.99 88.5625 267.284 87.7178 267.412L71.8868 269.817C71.5607 269.866 71.2309 269.887 70.9012 269.878ZM86.4242 256.517H86.0751L70.2236 258.881C69.9087 258.923 69.6054 259.028 69.3313 259.189C69.0572 259.35 68.8178 259.564 68.6268 259.818C68.4358 260.073 68.2971 260.362 68.2188 260.671C68.1404 260.979 68.1239 261.3 68.1703 261.615L68.4783 263.67C68.5211 263.984 68.6253 264.285 68.7848 264.558C68.9443 264.831 69.156 265.07 69.4077 265.261C69.6594 265.452 69.9463 265.591 70.2519 265.671C70.5575 265.751 70.8758 265.769 71.1886 265.726L87.0402 263.3C87.3551 263.257 87.6584 263.152 87.9324 262.991C88.2065 262.831 88.446 262.617 88.637 262.362C88.828 262.108 88.9666 261.818 89.045 261.51C89.1234 261.202 89.1399 260.881 89.0935 260.566L88.7855 258.511C88.744 258.199 88.6387 257.9 88.4762 257.631C88.3136 257.362 88.0974 257.13 87.841 256.948C87.4278 256.655 86.9307 256.503 86.4242 256.517Z" fill="black"/>
<path d="M330.173 304.395L346.049 306.803C348.474 307.171 350.738 305.501 351.106 303.073L351.417 301.018C351.784 298.59 350.116 296.324 347.691 295.956L331.815 293.548C329.39 293.18 327.126 294.85 326.759 297.278L326.448 299.333C326.081 301.761 327.749 304.027 330.173 304.395Z" fill="#FFC9B0"/>
<path d="M347.893 308.977C347.565 309.007 347.235 309.007 346.907 308.977L331.117 306.469C330.274 306.345 329.463 306.054 328.733 305.613C328.003 305.172 327.369 304.589 326.867 303.899C325.849 302.509 325.421 300.773 325.676 299.069L326.004 297.013C326.268 295.312 327.193 293.784 328.578 292.763C329.963 291.742 331.695 291.312 333.396 291.566L349.248 293.991C350.949 294.25 352.478 295.174 353.498 296.561C354.515 297.959 354.943 299.701 354.689 301.412L354.361 303.468C354.126 305.002 353.351 306.403 352.177 307.416C351.002 308.43 349.505 308.991 347.954 308.997L347.893 308.977ZM332.349 295.615C331.775 295.619 331.221 295.828 330.788 296.205C330.355 296.582 330.071 297.102 329.988 297.671L329.68 299.726C329.63 300.035 329.643 300.35 329.717 300.654C329.791 300.958 329.925 301.243 330.111 301.494C330.483 302.01 331.044 302.358 331.671 302.46L347.523 304.866C347.834 304.919 348.154 304.909 348.461 304.834C348.768 304.76 349.057 304.624 349.309 304.434C349.562 304.249 349.776 304.016 349.938 303.748C350.101 303.48 350.208 303.182 350.254 302.872L350.562 300.816C350.608 300.502 350.592 300.183 350.513 299.876C350.434 299.569 350.295 299.28 350.104 299.028C349.913 298.775 349.673 298.563 349.4 298.404C349.126 298.245 348.823 298.143 348.509 298.103L332.657 295.677L332.349 295.615Z" fill="black"/>
<path d="M333.317 291.442L349.169 293.865C351.591 294.235 353.853 292.57 354.223 290.145L354.536 288.093C354.906 285.669 353.242 283.404 350.821 283.034L334.968 280.611C332.547 280.241 330.284 281.906 329.915 284.33L329.602 286.382C329.232 288.807 330.895 291.072 333.317 291.442Z" fill="#FFC9B0"/>
<path d="M349.884 295.882C349.557 295.913 349.227 295.913 348.899 295.882L333.047 293.457C331.348 293.193 329.821 292.267 328.802 290.88C327.782 289.494 327.352 287.759 327.606 286.056L327.914 284.001C328.187 282.3 329.118 280.775 330.505 279.756C331.892 278.737 333.624 278.305 335.326 278.553L351.157 280.979C352.002 281.107 352.813 281.4 353.544 281.843C354.276 282.286 354.912 282.868 355.418 283.558C355.923 284.247 356.288 285.03 356.491 285.861C356.693 286.692 356.73 287.555 356.599 288.4L356.291 290.455C356.034 291.971 355.25 293.347 354.078 294.341C352.905 295.334 351.42 295.88 349.884 295.882ZM334.341 282.521C333.767 282.524 333.213 282.734 332.78 283.111C332.347 283.488 332.063 284.008 331.98 284.576L331.671 286.632C331.625 286.947 331.642 287.268 331.72 287.576C331.798 287.884 331.937 288.174 332.128 288.428C332.319 288.682 332.558 288.896 332.833 289.057C333.107 289.218 333.41 289.323 333.725 289.366L349.597 291.771C350.231 291.859 350.874 291.692 351.386 291.307C351.898 290.922 352.236 290.35 352.328 289.715L352.636 287.66C352.679 287.347 352.661 287.028 352.581 286.722C352.501 286.416 352.362 286.129 352.171 285.877C351.98 285.625 351.742 285.413 351.469 285.253C351.197 285.094 350.895 284.989 350.583 284.946L334.751 282.521H334.341Z" fill="black"/>
<path d="M335.317 278.414L351.17 280.837C353.591 281.207 355.854 279.542 356.223 277.118L356.536 275.065C356.906 272.641 355.243 270.376 352.821 270.006L336.969 267.583C334.547 267.213 332.285 268.878 331.915 271.302L331.602 273.355C331.232 275.779 332.896 278.044 335.317 278.414Z" fill="#FFC9B0"/>
<path d="M351.876 282.911C351.541 282.941 351.205 282.941 350.87 282.911L335.039 280.506C333.338 280.238 331.811 279.307 330.792 277.917C329.773 276.527 329.344 274.791 329.598 273.085L329.906 271.03C330.033 270.184 330.327 269.372 330.771 268.641C331.215 267.91 331.801 267.276 332.493 266.774C333.88 265.754 335.615 265.325 337.318 265.582L353.149 268.008C353.994 268.136 354.805 268.429 355.536 268.872C356.267 269.314 356.904 269.897 357.41 270.587C357.915 271.276 358.28 272.059 358.482 272.89C358.685 273.721 358.722 274.583 358.59 275.429L358.282 277.484C358.06 279.024 357.289 280.432 356.112 281.448C354.935 282.464 353.43 283.02 351.876 283.014V282.911ZM336.333 269.549C335.756 269.545 335.198 269.751 334.763 270.129C334.328 270.508 334.046 271.033 333.971 271.605L333.663 273.661C333.617 273.975 333.633 274.296 333.712 274.605C333.79 274.913 333.929 275.203 334.12 275.457C334.311 275.711 334.55 275.925 334.824 276.086C335.098 276.247 335.402 276.352 335.717 276.395L351.568 278.82C351.881 278.864 352.199 278.845 352.505 278.765C352.81 278.686 353.097 278.546 353.349 278.355C353.601 278.164 353.812 277.926 353.972 277.653C354.131 277.38 354.236 277.078 354.278 276.765L354.607 274.709C354.653 274.394 354.637 274.074 354.559 273.765C354.48 273.457 354.341 273.167 354.151 272.913C353.96 272.659 353.72 272.445 353.446 272.284C353.172 272.123 352.869 272.018 352.554 271.975L336.702 269.549H336.333Z" fill="black"/>
<path d="M337.318 265.383L353.17 267.806C355.592 268.176 357.854 266.511 358.224 264.087L358.537 262.035C358.907 259.61 357.243 257.345 354.822 256.975L338.969 254.552C336.548 254.182 334.285 255.847 333.916 258.271L333.603 260.324C333.233 262.748 334.896 265.013 337.318 265.383Z" fill="#FFC9B0"/>
<path d="M353.847 269.878C353.519 269.908 353.19 269.908 352.862 269.878L337.031 267.473C336.186 267.345 335.375 267.052 334.644 266.609C333.913 266.167 333.276 265.584 332.77 264.894C332.265 264.205 331.9 263.422 331.697 262.591C331.495 261.76 331.458 260.898 331.589 260.052L331.897 257.997C332.02 257.151 332.309 256.337 332.749 255.604C333.188 254.871 333.768 254.233 334.456 253.726C335.143 253.219 335.925 252.854 336.755 252.652C337.584 252.45 338.446 252.415 339.289 252.549L355.141 254.954C356.842 255.223 358.368 256.153 359.388 257.543C360.407 258.933 360.836 260.67 360.582 262.375L360.274 264.431C360.021 265.954 359.236 267.338 358.059 268.335C356.882 269.333 355.389 269.88 353.847 269.878ZM338.304 256.517C337.8 256.52 337.31 256.685 336.907 256.989C336.651 257.171 336.435 257.403 336.272 257.672C336.11 257.941 336.004 258.24 335.963 258.552L335.634 260.607C335.588 260.922 335.605 261.243 335.683 261.551C335.761 261.86 335.9 262.149 336.091 262.404C336.282 262.658 336.521 262.872 336.795 263.033C337.07 263.194 337.373 263.299 337.688 263.341L353.539 265.767C353.852 265.811 354.17 265.792 354.476 265.712C354.782 265.632 355.068 265.493 355.32 265.302C355.572 265.111 355.784 264.872 355.943 264.599C356.103 264.326 356.207 264.025 356.25 263.711L356.558 261.656C356.604 261.341 356.588 261.02 356.509 260.712C356.431 260.404 356.292 260.114 356.101 259.86C355.91 259.605 355.671 259.391 355.397 259.23C355.122 259.069 354.819 258.965 354.504 258.922L338.653 256.496H338.283L338.304 256.517Z" fill="black"/>
<path d="M79.4635 77.5514H34.6397C28.6494 77.5514 22.9045 79.9337 18.6687 84.1743C14.4329 88.4149 12.0533 94.1665 12.0533 100.164V117.945C12.0533 123.942 14.4329 129.694 18.6687 133.934C22.9045 138.175 28.6494 140.557 34.6397 140.557H64.0021L78.8064 161.566V140.475H79.4635C85.4538 140.475 91.1987 138.093 95.4345 133.852C99.6702 129.611 102.05 123.86 102.05 117.863V100.122C102.039 94.1325 99.6546 88.3915 95.42 84.1598C91.1854 79.9281 85.4467 77.5514 79.4635 77.5514Z" fill="white"/>
<path d="M78.8064 163.539C78.4754 163.539 78.1494 163.458 77.8562 163.304C77.5631 163.15 77.3114 162.928 77.1227 162.655L62.9343 142.531H34.6397C28.1049 142.531 21.8376 139.932 17.2168 135.306C12.596 130.679 10 124.405 10 117.863V100.122C10 93.5801 12.596 87.3058 17.2168 82.6797C21.8376 78.0535 28.1049 75.4546 34.6397 75.4546H79.4635C85.9983 75.4546 92.2655 78.0535 96.8864 82.6797C101.507 87.3058 104.103 93.5801 104.103 100.122V117.904C104.114 124.204 101.716 130.27 97.4018 134.857C93.0874 139.444 87.1834 142.204 80.9008 142.572V161.566C80.8991 162.002 80.7589 162.426 80.5005 162.777C80.2422 163.128 79.879 163.388 79.4635 163.519C79.247 163.561 79.0251 163.568 78.8064 163.539ZM34.6397 79.607C29.194 79.607 23.9713 81.7728 20.1206 85.6279C16.2699 89.483 14.1066 94.7116 14.1066 100.164V117.945C14.1066 123.397 16.2699 128.626 20.1206 132.481C23.9713 136.336 29.194 138.502 34.6397 138.502H64.0021C64.3278 138.503 64.6485 138.582 64.9377 138.732C65.2269 138.882 65.4763 139.099 65.6652 139.365L76.7531 155.07V140.475C76.7531 139.93 76.9694 139.407 77.3545 139.021C77.7396 138.636 78.2618 138.419 78.8064 138.419H79.4635C84.9092 138.419 90.1319 136.254 93.9826 132.398C97.8333 128.543 99.9966 123.315 99.9966 117.863V100.122C99.9966 94.6705 97.8333 89.4419 93.9826 85.5868C90.1319 81.7317 84.9092 79.5659 79.4635 79.5659L34.6397 79.607Z" fill="black"/>
<path d="M57.0619 126.887C56.1789 126.065 55.3371 125.263 54.4542 124.482C52.0313 122.317 49.5878 120.165 47.1239 118.027C45.5017 116.588 43.8796 115.149 42.4012 113.566C41.0655 112.163 39.988 110.535 39.2186 108.756C38.7158 107.547 38.384 106.274 38.233 104.974C38.0657 103.81 38.0107 102.633 38.0687 101.459C38.1123 99.5125 38.7522 97.6268 39.9017 96.0568C41.0513 94.4867 42.6549 93.3083 44.4956 92.681C46.3232 92.0179 48.3049 91.9059 50.1954 92.359C52.0859 92.8121 53.8022 93.8103 55.1317 95.23C55.8296 95.9096 56.4369 96.6765 56.9387 97.5118C56.9387 97.5118 56.9387 97.5118 57.0619 97.6968C57.0974 97.6142 57.1459 97.5379 57.2056 97.4707C58.294 95.6599 59.856 94.1814 61.7229 93.1949C63.3711 92.3572 65.2193 91.9942 67.0615 92.1465C69.1191 92.2727 71.0797 93.0665 72.6465 94.4077C74.402 95.8702 75.5631 97.9245 75.9113 100.184C76.0446 101.359 76.0446 102.545 75.9113 103.72C75.8328 104.979 75.6194 106.227 75.2747 107.441C74.7043 109.283 73.7763 110.994 72.5438 112.477C71.2842 113.991 69.9114 115.406 68.4372 116.712C66.1991 118.767 63.9199 120.638 61.7024 122.632C60.1624 123.989 58.684 125.386 57.1645 126.743L57.0619 126.887Z" fill="#F56132"/>
<path d="M57.0003 128.881C56.5109 128.881 56.0376 128.706 55.6656 128.388L54.8238 127.607C54.2488 127.072 53.6944 126.538 53.099 126.024L45.7687 119.569C44.0669 118.113 42.4426 116.57 40.9023 114.944C39.3932 113.37 38.1764 111.539 37.309 109.537C36.7571 108.159 36.3844 106.715 36.2002 105.241C36.0174 103.962 35.9555 102.668 36.0154 101.376C36.0762 99.0109 36.8611 96.7212 38.2639 94.8168C39.6667 92.9124 41.6198 91.4852 43.8591 90.7281C46.043 89.9504 48.405 89.8218 50.6603 90.358C52.9155 90.8942 54.9676 92.0722 56.5691 93.7499L57.0619 94.2638C58.115 93.0771 59.383 92.1006 60.7989 91.3859C62.8966 90.3067 65.2653 89.8696 67.6095 90.1292C69.9537 90.3887 72.1697 91.3334 73.9811 92.8454C76.1051 94.6169 77.5135 97.1008 77.944 99.8347C78.148 101.196 78.1825 102.577 78.0467 103.946C77.9682 105.34 77.727 106.72 77.328 108.057C76.7032 110.17 75.6475 112.13 74.2275 113.813C72.8817 115.426 71.4052 116.925 69.8129 118.294L66.7535 120.967L63.0781 124.194L60.0802 126.99L58.684 128.285C58.2223 128.697 57.6178 128.911 57.0003 128.881ZM47.9657 94.1611C47.0027 94.1744 46.0474 94.3338 45.1321 94.6339C43.6901 95.1314 42.4358 96.061 41.5395 97.2967C40.6433 98.5323 40.1484 100.014 40.1221 101.541C40.0794 102.598 40.1275 103.657 40.2658 104.707C40.4023 105.828 40.6854 106.927 41.1077 107.975C41.7994 109.499 42.7513 110.89 43.9207 112.086C45.3659 113.595 46.8873 115.029 48.479 116.383L55.8299 122.858L57.0619 123.989H57.1851C58.2322 123.022 59.2384 122.056 60.3472 121.111C61.4559 120.165 62.8111 118.932 64.0637 117.863L67.082 115.19C68.5137 113.976 69.8395 112.642 71.0449 111.202C72.1115 109.928 72.9142 108.453 73.4062 106.865C73.704 105.805 73.8898 104.716 73.9606 103.617C74.0738 102.606 74.0738 101.586 73.9606 100.575C73.6991 98.8722 72.8605 97.3115 71.5855 96.1549C70.3106 94.9982 68.6769 94.316 66.9588 94.2227C65.4994 94.0871 64.0317 94.3724 62.729 95.045C61.1677 95.8406 59.8539 97.0492 58.9304 98.5396C58.7401 98.8481 58.4784 99.1063 58.1675 99.2923C57.8566 99.4784 57.5056 99.5868 57.144 99.6085C56.7979 99.6356 56.4507 99.5743 56.1347 99.4305C55.8187 99.2867 55.5443 99.0651 55.3371 98.7863L56.8771 97.5529L55.2139 98.6013C54.8021 97.9114 54.3054 97.276 53.7355 96.7101C52.989 95.9256 52.0949 95.2965 51.1047 94.859C50.1145 94.4216 49.0478 94.1844 47.9657 94.1611Z" fill="black"/>
<path d="M370.294 367.049C370.294 367.049 356.291 338.476 358.241 319.152C366.151 323.521 372.115 330.726 374.935 339.318C383.148 362.321 381.3 367.07 381.3 367.07L370.294 367.049Z" fill="#70CC40"/>
<path d="M381.3 369.125H370.294C369.909 369.126 369.532 369.019 369.205 368.815C368.879 368.612 368.616 368.32 368.446 367.974C367.871 366.782 354.217 338.64 356.126 318.967C356.159 318.642 356.269 318.329 356.446 318.055C356.623 317.781 356.864 317.553 357.147 317.39C357.43 317.227 357.747 317.134 358.074 317.119C358.4 317.104 358.725 317.167 359.022 317.302C359.514 317.528 371.136 322.955 376.803 338.64C385.017 361.252 383.518 366.946 383.148 367.851C382.997 368.22 382.741 368.537 382.413 368.763C382.085 368.99 381.698 369.115 381.3 369.125ZM371.588 365.014H379.473C379.473 362.444 378.61 355.579 373.005 340.017C370.584 333.053 366.082 327.003 360.11 322.688C359.966 338.784 369.227 359.875 371.588 364.993V365.014Z" fill="black"/>
<path d="M376.947 365.775C376.947 365.775 366.434 325.011 381.546 297.732C381.546 297.732 390.252 307.702 392.347 331.836C393.436 343.316 391.25 354.871 386.043 365.158L376.947 365.775Z" fill="#70CC40"/>
<path d="M376.947 367.83C376.481 367.845 376.023 367.7 375.65 367.42C375.277 367.14 375.01 366.741 374.894 366.288C374.463 364.582 364.36 324.415 379.698 296.746C379.858 296.457 380.086 296.21 380.361 296.028C380.636 295.845 380.951 295.732 381.279 295.697C381.608 295.663 381.941 295.708 382.248 295.83C382.555 295.952 382.829 296.146 383.045 296.396C383.415 296.807 392.203 307.147 394.318 331.651C395.475 343.559 393.202 355.55 387.768 366.206C387.597 366.496 387.358 366.739 387.072 366.915C386.786 367.09 386.461 367.193 386.125 367.214L377.029 367.81L376.947 367.83ZM381.813 301.762C371.013 324.785 376.906 356.113 378.549 363.596L384.709 363.184C389.273 353.469 391.179 342.715 390.232 332.021C388.877 315.637 384.359 305.955 381.813 301.659V301.762Z" fill="black"/>
<path d="M381.485 364.397C381.485 364.397 384.75 337.18 406.72 319.44C406.72 319.44 413.188 339.688 395.037 366.72L381.485 364.397Z" fill="#70CC40"/>
<path d="M395.037 368.838H394.77L381.218 366.432C380.702 366.342 380.241 366.057 379.928 365.636C379.615 365.216 379.474 364.692 379.534 364.171C379.678 363.02 383.148 335.927 405.509 317.857C405.767 317.649 406.072 317.507 406.397 317.442C406.723 317.378 407.059 317.393 407.377 317.487C407.698 317.581 407.991 317.752 408.23 317.985C408.47 318.218 408.649 318.506 408.753 318.823C409.02 319.687 415.323 340.346 396.823 367.954C396.625 368.241 396.357 368.472 396.044 368.627C395.732 368.782 395.385 368.854 395.037 368.838ZM383.846 362.671L394.113 364.48C406.576 345.28 406.309 329.698 405.426 323.243C389.76 337.468 385.017 356.647 383.846 362.712V362.671Z" fill="black"/>
<path d="M396.536 394.944H368.898L364.812 361.273H400.622L396.536 394.944Z" fill="white"/>
<path d="M396.536 397H368.898C368.394 397.004 367.905 396.821 367.527 396.488C367.148 396.154 366.905 395.692 366.845 395.191L362.738 361.519C362.703 361.228 362.73 360.932 362.819 360.652C362.907 360.372 363.055 360.114 363.251 359.895C363.446 359.68 363.683 359.508 363.949 359.391C364.214 359.274 364.501 359.215 364.791 359.217H400.601C400.891 359.215 401.178 359.274 401.444 359.391C401.709 359.508 401.947 359.68 402.141 359.895C402.334 360.115 402.478 360.374 402.563 360.654C402.648 360.934 402.672 361.229 402.634 361.519L398.527 395.191C398.468 395.682 398.234 396.135 397.868 396.467C397.503 396.8 397.029 396.989 396.536 397ZM370.725 392.889H394.77L398.363 363.328H367.132L370.725 392.889Z" fill="black"/>
</svg>
