<svg width="284" height="444" viewBox="0 0 284 444" fill="none" xmlns="http://www.w3.org/2000/svg">
<path d="M116.892 233.377H167.108C186.368 233.377 204.839 241.045 218.459 254.695C232.078 268.344 239.729 286.857 239.729 306.161V397.466H44.2713V306.161C44.2713 296.603 46.1497 287.138 49.7992 278.308C53.4488 269.477 58.798 261.453 65.5415 254.695C72.2849 247.936 80.2906 242.575 89.1014 238.917C97.9122 235.259 107.356 233.377 116.892 233.377Z" fill="#F56132"/>
<path d="M239.729 399.781H44.2713C43.6587 399.781 43.0712 399.537 42.638 399.103C42.2048 398.669 41.9615 398.08 41.9615 397.466V306.161C41.9798 286.249 49.8802 267.158 63.9284 253.078C77.9767 238.998 97.025 231.08 116.892 231.062H167.108C186.975 231.08 206.023 238.998 220.072 253.078C234.12 267.158 242.02 286.249 242.039 306.161V397.466C242.039 398.08 241.795 398.669 241.362 399.103C240.929 399.537 240.341 399.781 239.729 399.781ZM46.5811 395.151H237.419V306.161C237.394 287.479 229.979 269.569 216.798 256.359C203.618 243.149 185.748 235.716 167.108 235.692H116.892C98.2521 235.716 80.3824 243.149 67.2018 256.359C54.0212 269.569 46.6056 287.479 46.5811 306.161V395.151Z" fill="black"/>
<path d="M190.922 353.457C190.309 353.457 189.722 353.213 189.289 352.779C188.856 352.345 188.612 351.756 188.612 351.142V253.68C188.612 253.066 188.856 252.477 189.289 252.043C189.722 251.608 190.309 251.365 190.922 251.365C191.535 251.365 192.122 251.608 192.555 252.043C192.989 252.477 193.232 253.066 193.232 253.68V351.142C193.232 351.756 192.989 352.345 192.555 352.779C192.122 353.213 191.535 353.457 190.922 353.457Z" fill="black"/>
<path d="M93.0779 353.457C92.4653 353.457 91.8778 353.213 91.4446 352.779C91.0115 352.345 90.7681 351.756 90.7681 351.142V253.68C90.7681 253.066 91.0115 252.477 91.4446 252.043C91.8778 251.608 92.4653 251.365 93.0779 251.365C93.6905 251.365 94.278 251.608 94.7112 252.043C95.1444 252.477 95.3878 253.066 95.3878 253.68V351.142C95.3878 351.756 95.1444 352.345 94.7112 352.779C94.278 353.213 93.6905 353.457 93.0779 353.457Z" fill="black"/>
<path d="M41.846 102.069C41.846 43.0122 85.8482 12.315 140.106 12.315C194.364 12.315 238.366 43.0122 238.366 102.069C238.366 161.125 194.479 209 140.106 209C85.7327 209 41.846 161.125 41.846 102.069Z" fill="#725858"/>
<path d="M140.106 211.315C84.6702 211.315 39.5362 162.305 39.5362 102.069C39.5362 46.1375 79.0111 10 140.106 10C201.201 10 240.676 46.0449 240.676 102.069C240.676 162.305 195.565 211.315 140.106 211.315ZM140.106 14.5374C81.8291 14.5374 44.1558 48.8693 44.1558 101.976C44.1558 159.666 87.211 206.592 140.106 206.592C193.001 206.592 236.056 159.666 236.056 101.976C236.056 48.9619 198.406 14.63 140.106 14.63V14.5374Z" fill="black"/>
<path d="M154.127 218.468V234.673C154.127 237.841 152.871 240.88 150.636 243.12C148.401 245.36 145.369 246.619 142.208 246.619H137.981C134.82 246.619 131.788 245.36 129.553 243.12C127.318 240.88 126.062 237.841 126.062 234.673V218.468H154.127Z" fill="#FFC9B0"/>
<path d="M142.231 248.887H138.004C134.23 248.887 130.611 247.385 127.943 244.711C125.275 242.036 123.776 238.409 123.776 234.627V218.422C123.776 217.808 124.019 217.219 124.452 216.785C124.885 216.351 125.473 216.107 126.085 216.107H154.127C154.739 216.107 155.327 216.351 155.76 216.785C156.193 217.219 156.436 217.808 156.436 218.422V234.627C156.436 238.405 154.941 242.029 152.277 244.702C149.614 247.376 146.001 248.881 142.231 248.887ZM128.372 220.783V234.673C128.372 237.227 129.384 239.677 131.186 241.483C132.988 243.289 135.432 244.304 137.981 244.304H142.208C143.469 244.304 144.717 244.054 145.882 243.57C147.046 243.086 148.104 242.376 148.994 241.482C149.885 240.587 150.59 239.525 151.071 238.357C151.551 237.189 151.797 235.937 151.794 234.673V220.783H128.372Z" fill="black"/>
<path d="M59.955 177.446C75.0081 177.446 87.211 166.905 87.211 153.902C87.211 140.899 75.0081 130.358 59.955 130.358C44.902 130.358 32.6991 140.899 32.6991 153.902C32.6991 166.905 44.902 177.446 59.955 177.446Z" fill="#FFC9B0"/>
<path d="M59.955 179.761C43.6477 179.761 30.3892 168.186 30.3892 153.902C30.3892 139.618 43.6477 128.043 59.955 128.043C76.2624 128.043 89.5208 139.618 89.5208 153.902C89.5208 168.186 76.2624 179.761 59.955 179.761ZM59.955 132.673C46.0961 132.673 35.0089 142.211 35.0089 153.902C35.0089 165.593 46.1885 175.131 59.955 175.131C73.7216 175.131 84.9011 165.593 84.9011 153.902C84.9011 142.211 73.6985 132.673 59.955 132.673Z" fill="black"/>
<path d="M218.825 177.446C233.878 177.446 246.081 166.905 246.081 153.902C246.081 140.899 233.878 130.358 218.825 130.358C203.772 130.358 191.569 140.899 191.569 153.902C191.569 166.905 203.772 177.446 218.825 177.446Z" fill="#FFC9B0"/>
<path d="M218.825 179.761C202.517 179.761 189.259 168.186 189.259 153.902C189.259 139.618 202.517 128.043 218.825 128.043C235.132 128.043 248.391 139.618 248.391 153.902C248.391 168.186 235.132 179.761 218.825 179.761ZM218.825 132.673C205.081 132.673 193.879 142.211 193.879 153.902C193.879 165.593 205.081 175.131 218.825 175.131C232.568 175.131 243.771 165.593 243.771 153.902C243.771 142.211 232.568 132.673 218.825 132.673Z" fill="black"/>
<path d="M190.506 87.4144C178.957 89.035 167.223 90.285 154.681 88.1784C161.61 80.5619 168.817 71.6954 168.009 61.4861C159.589 72.404 148.56 81.0186 135.939 86.5337C123.319 92.0488 109.515 94.2865 95.8035 93.0399L119.918 60.0508C101.67 66.9959 82.7761 74.7744 69.7025 89.9378C55.5433 106.374 57.9917 127.418 57.9917 148.23C57.8088 159.165 59.7997 170.026 63.8482 180.182C67.8968 190.337 73.9221 199.583 81.5728 207.381C89.2234 215.178 98.3464 221.371 108.41 225.598C118.473 229.826 129.275 232.003 140.187 232.003C151.098 232.003 161.901 229.826 171.964 225.598C182.027 221.371 191.15 215.178 198.801 207.381C206.452 199.583 212.477 190.337 216.525 180.182C220.574 170.026 222.565 159.165 222.382 148.23V84.1734C211.692 84.4775 201.039 85.5607 190.506 87.4144Z" fill="#FFC9B0"/>
<path d="M140.106 232.937C117.702 232.906 96.2253 223.971 80.3857 208.092C64.5461 192.212 55.637 170.684 55.6126 148.23C55.6126 145.568 55.6126 142.882 55.6126 140.22C55.3585 122.14 55.0582 103.411 67.9932 88.433C80.9283 73.4548 99.6147 65.2828 119.133 57.8747C119.599 57.698 120.109 57.677 120.587 57.8146C121.066 57.9523 121.488 58.2414 121.789 58.6387C122.089 59.0394 122.251 59.5268 122.251 60.0277C122.251 60.5286 122.089 61.016 121.789 61.4167L100.123 91.049C112.812 91.5423 125.435 88.9909 136.942 83.6072C148.448 78.2235 158.506 70.1632 166.276 60.0971C166.558 59.7204 166.948 59.4388 167.394 59.2899C167.839 59.141 168.32 59.1319 168.771 59.2637C169.222 59.3938 169.622 59.6585 169.919 60.0224C170.217 60.3863 170.396 60.8323 170.434 61.3009C171.173 70.862 165.814 79.0109 159.37 86.4884C169.696 87.3222 180.086 86.8634 190.298 85.1226L194.918 84.4512C204.01 82.9577 213.194 82.0914 222.405 81.8584C223.018 81.8584 223.605 82.1023 224.038 82.5364C224.472 82.9706 224.715 83.5594 224.715 84.1734V148.23C224.69 170.704 215.765 192.25 199.901 208.133C184.036 224.015 162.53 232.937 140.106 232.937ZM113.312 65.0745C96.7044 71.7186 82.1755 78.9646 71.3887 91.4657C59.6085 105.101 59.8395 122.14 60.1398 140.081C60.1398 142.767 60.1398 145.475 60.1398 148.161C59.9595 158.79 61.8925 169.348 65.8262 179.22C69.7598 189.093 75.6154 198.081 83.0513 205.662C90.4872 213.242 99.3546 219.263 109.136 223.372C118.918 227.482 129.419 229.599 140.025 229.599C150.632 229.599 161.132 227.482 170.914 223.372C180.696 219.263 189.563 213.242 196.999 205.662C204.435 198.081 210.29 189.093 214.224 179.22C218.158 169.348 220.091 158.79 219.91 148.161V86.5116C211.69 86.8508 203.498 87.6935 195.38 89.035L190.76 89.7063C179.465 91.2805 167.316 92.6464 154.242 90.4703C153.831 90.4036 153.446 90.2271 153.127 89.9592C152.809 89.6914 152.568 89.3422 152.431 88.9486C152.293 88.5549 152.265 88.1315 152.348 87.7229C152.431 87.3143 152.622 86.9358 152.902 86.6273C157.892 81.0713 162.765 75.2143 164.752 68.8942C155.971 78.2969 145.165 85.5662 133.156 90.1478C121.147 94.7295 108.253 96.5025 95.4571 95.3318C95.0529 95.2892 94.6671 95.1405 94.3386 94.9007C94.0101 94.6609 93.7505 94.3385 93.5861 93.966C93.4173 93.594 93.3498 93.1839 93.3903 92.7772C93.4309 92.3706 93.5781 91.982 93.8171 91.6509L113.312 65.0745Z" fill="black"/>
<path d="M102.063 143.855C106.26 143.855 109.662 140.445 109.662 136.238C109.662 132.032 106.26 128.622 102.063 128.622C97.8662 128.622 94.4638 132.032 94.4638 136.238C94.4638 140.445 97.8662 143.855 102.063 143.855Z" fill="black"/>
<path d="M180.551 143.855C184.748 143.855 188.15 140.445 188.15 136.238C188.15 132.032 184.748 128.622 180.551 128.622C176.354 128.622 172.952 132.032 172.952 136.238C172.952 140.445 176.354 143.855 180.551 143.855Z" fill="black"/>
<path d="M139.69 164.111C137.213 164.107 134.741 163.898 132.299 163.486C131.7 163.379 131.168 163.039 130.817 162.54C130.467 162.042 130.327 161.425 130.428 160.824C130.478 160.522 130.587 160.234 130.75 159.975C130.912 159.716 131.124 159.491 131.373 159.315C131.622 159.138 131.903 159.013 132.201 158.946C132.499 158.88 132.807 158.872 133.107 158.926C136.863 159.537 140.693 159.537 144.448 158.926C144.957 156.796 142.139 148.577 138.05 140.822C137.782 140.28 137.736 139.655 137.922 139.08C138.108 138.505 138.511 138.025 139.045 137.744C139.579 137.463 140.202 137.402 140.78 137.575C141.358 137.748 141.846 138.141 142.139 138.669C144.217 142.674 150.824 156.055 148.583 161.032C148.338 161.603 147.964 162.108 147.491 162.51C147.018 162.912 146.459 163.198 145.857 163.347C143.84 163.848 141.769 164.104 139.69 164.111Z" fill="black"/>
<path d="M81.3209 113.829C80.3469 113.829 79.4127 113.441 78.724 112.751C78.0352 112.06 77.6483 111.124 77.6483 110.148C77.6483 109.172 78.0352 108.235 78.724 107.545C79.4127 106.855 80.3469 106.467 81.3209 106.467H117.631C118.605 106.467 119.54 106.855 120.228 107.545C120.917 108.235 121.304 109.172 121.304 110.148C121.304 111.124 120.917 112.06 120.228 112.751C119.54 113.441 118.605 113.829 117.631 113.829H81.3209Z" fill="black"/>
<path d="M169.348 114.709C168.374 114.733 167.43 114.369 166.724 113.696C166.018 113.023 165.608 112.097 165.583 111.12C165.559 110.144 165.922 109.198 166.594 108.49C167.265 107.783 168.19 107.371 169.164 107.347L205.405 105.495C205.903 105.439 206.407 105.486 206.887 105.632C207.366 105.779 207.81 106.022 208.192 106.348C208.574 106.673 208.886 107.073 209.107 107.524C209.329 107.974 209.457 108.465 209.482 108.967C209.507 109.469 209.43 109.971 209.254 110.441C209.079 110.912 208.809 111.341 208.462 111.703C208.115 112.066 207.697 112.353 207.235 112.547C206.773 112.741 206.276 112.839 205.774 112.833L169.533 114.709H169.348Z" fill="black"/>
<path d="M145.28 196.012C128.118 196.012 109.709 186.567 108.6 185.988C108.058 185.703 107.651 185.213 107.469 184.627C107.287 184.041 107.345 183.406 107.63 182.863C107.915 182.326 108.399 181.923 108.978 181.741C109.558 181.559 110.185 181.613 110.725 181.891C111.095 182.076 146.227 200.064 161.98 186.034C162.449 185.62 163.062 185.409 163.686 185.448C164.31 185.487 164.893 185.773 165.306 186.243C165.72 186.713 165.93 187.328 165.891 187.953C165.852 188.578 165.567 189.162 165.098 189.576C159.516 194.109 152.454 196.402 145.28 196.012Z" fill="black"/>
<path d="M25.9775 270.95L39.721 261.944L140.245 291.299V374.709L25.9775 270.95Z" fill="white"/>
<path d="M140.221 377.093C139.652 377.098 139.101 376.892 138.674 376.515L24.4299 272.663C24.1681 272.424 23.9644 272.128 23.8346 271.799C23.7048 271.469 23.6524 271.113 23.6814 270.76C23.7105 270.406 23.8201 270.064 24.0019 269.76C24.1838 269.456 24.4329 269.197 24.7302 269.005L38.5891 259.999C38.8667 259.82 39.1794 259.703 39.5061 259.655C39.8328 259.607 40.166 259.63 40.4832 259.722L140.868 289.123C141.364 289.267 141.796 289.573 142.098 289.993C142.399 290.412 142.552 290.921 142.531 291.438V374.778C142.535 375.228 142.408 375.668 142.166 376.046C141.924 376.425 141.577 376.724 141.168 376.908C140.869 377.036 140.547 377.099 140.221 377.093ZM29.7425 271.227L137.912 369.477V293.081L40.1136 264.491L29.7425 271.227Z" fill="black"/>
<path d="M254.489 270.95L241.553 261.944L141.053 291.299V374.709L254.489 270.95Z" fill="white"/>
<path d="M141.053 377.093C140.736 377.096 140.421 377.033 140.129 376.908C139.716 376.728 139.364 376.43 139.118 376.051C138.872 375.673 138.742 375.23 138.743 374.778V291.438C138.723 290.921 138.875 290.412 139.177 289.993C139.478 289.573 139.911 289.267 140.406 289.123L240.907 259.768C241.239 259.665 241.59 259.639 241.934 259.691C242.278 259.743 242.606 259.872 242.893 260.069L255.805 269.074C256.088 269.276 256.323 269.538 256.491 269.843C256.659 270.148 256.756 270.486 256.775 270.834C256.798 271.178 256.743 271.523 256.615 271.844C256.487 272.164 256.289 272.452 256.036 272.686L142.624 376.445C142.201 376.853 141.64 377.085 141.053 377.093ZM143.363 293.128V369.523L250.793 271.251L241.161 264.537L143.363 293.128Z" fill="black"/>
<path d="M128.21 431.659L25.9775 399.596V270.95L128.21 303.013V431.659Z" fill="white"/>
<path d="M128.141 433.974C127.919 434.009 127.693 434.009 127.471 433.974L25.2152 401.911C24.7285 401.758 24.306 401.448 24.0135 401.029C23.721 400.61 23.575 400.106 23.5984 399.596V270.95C23.5974 270.584 23.6827 270.224 23.8473 269.898C24.0119 269.572 24.2511 269.29 24.5454 269.074C24.8369 268.859 25.1749 268.715 25.532 268.655C25.8891 268.595 26.2553 268.62 26.6011 268.727L128.903 300.698C129.39 300.85 129.813 301.16 130.105 301.579C130.398 301.998 130.543 302.502 130.52 303.013V431.659C130.52 432.018 130.437 432.372 130.276 432.694C130.116 433.015 129.883 433.295 129.596 433.511C129.178 433.826 128.664 433.989 128.141 433.974ZM28.2873 397.929L125.831 428.51V304.703L28.218 274.098L28.2873 397.929Z" fill="black"/>
<path d="M254.489 399.596L152.256 431.659V303.013L254.489 270.95V399.596Z" fill="white"/>
<path d="M152.256 433.974C151.756 433.974 151.27 433.811 150.87 433.511C150.583 433.295 150.35 433.015 150.19 432.694C150.029 432.372 149.946 432.018 149.946 431.659V303.013C149.922 302.502 150.068 301.998 150.361 301.579C150.653 301.16 151.076 300.85 151.563 300.698L253.796 268.635C254.141 268.527 254.508 268.502 254.865 268.562C255.222 268.623 255.56 268.766 255.851 268.982C256.146 269.197 256.385 269.48 256.549 269.805C256.714 270.131 256.799 270.492 256.798 270.857V399.48C256.822 399.99 256.676 400.494 256.383 400.913C256.091 401.332 255.668 401.642 255.181 401.795L152.925 433.858C152.71 433.932 152.484 433.971 152.256 433.974ZM154.565 304.703V428.51L252.179 397.929V274.098L154.565 304.703Z" fill="black"/>
<path d="M179.188 351.628C178.7 351.621 178.226 351.468 177.825 351.188C177.531 350.973 177.292 350.691 177.127 350.365C176.963 350.039 176.877 349.678 176.878 349.313V319.449C176.879 318.961 177.033 318.486 177.319 318.091C177.606 317.696 178.009 317.401 178.472 317.25L233.076 299.563C233.424 299.449 233.793 299.418 234.155 299.474C234.516 299.531 234.859 299.672 235.155 299.887C235.45 300.103 235.689 300.385 235.853 300.711C236.018 301.037 236.103 301.397 236.102 301.763V330.793C236.099 331.274 235.946 331.743 235.664 332.133C235.383 332.523 234.987 332.815 234.532 332.969L179.927 351.489C179.688 351.568 179.44 351.614 179.188 351.628ZM181.498 321.255V346.095L231.483 329.149V305.073L181.498 321.255Z" fill="black"/>
<path d="M128.233 431.659H152.256V303.013L128.233 303.013V431.659Z" fill="white"/>
<path d="M152.256 433.974L128.141 433.974C127.528 433.974 126.941 433.73 126.508 433.296C126.075 432.861 125.831 432.273 125.831 431.659V303.013C125.831 302.399 126.075 301.81 126.508 301.376C126.941 300.942 127.528 300.698 128.141 300.698H152.186C152.799 300.698 153.386 300.942 153.82 301.376C154.253 301.81 154.496 302.399 154.496 303.013V431.659C154.496 432.261 154.263 432.839 153.844 433.272C153.426 433.704 152.856 433.956 152.256 433.974ZM130.52 429.344H149.946V305.328H130.451L130.52 429.344Z" fill="black"/>
<path d="M40.7604 329.844C42.4465 330.654 44.3406 331.881 44.3175 333.756C44.2246 334.562 43.8565 335.312 43.2756 335.877C42.6947 336.442 41.9367 336.789 41.13 336.858C39.506 336.955 37.8826 336.661 36.3948 336.002C38.5041 336.778 40.4026 338.039 41.9384 339.683C42.6977 340.511 43.1564 341.571 43.2402 342.693C43.324 343.814 43.0282 344.932 42.4004 345.864C40.7604 347.808 37.7807 347.554 35.263 347.137C37.1482 347.864 38.8975 348.905 40.437 350.216C41.2004 350.883 41.7876 351.728 42.1463 352.678C42.5049 353.627 42.6239 354.65 42.4927 355.656C41.9153 358.62 38.4506 360.286 35.4247 360.009C38.1503 361.537 41.3147 363.898 40.7373 366.954C40.1598 370.01 36.6027 371.028 33.6692 370.912C29.5009 370.576 25.5082 369.084 22.1384 366.602C18.7687 364.12 16.1549 360.747 14.59 356.86C11.5534 348.995 11.5534 340.278 14.59 332.414C16.1838 327.992 18.5168 323.755 23.6215 324.149C29.6207 325.037 35.4201 326.964 40.7604 329.844Z" fill="#FFC9B0"/>
<path d="M34.0157 373.274H33.5768C28.9727 372.924 24.5573 371.293 20.8275 368.566C17.0977 365.838 14.2016 362.12 12.465 357.832C9.17833 349.424 9.17833 340.082 12.465 331.673C13.4813 328.825 16.2069 321.301 23.8525 321.903C30.12 322.785 36.1814 324.776 41.7536 327.783C45.0105 329.335 46.6504 331.372 46.6273 333.803C46.6169 334.754 46.3521 335.686 45.8605 336.5C45.369 337.314 44.6687 337.982 43.8324 338.433C44.8834 339.686 45.4861 341.255 45.5447 342.891C45.6032 344.527 45.1144 346.136 44.1558 347.461C43.6492 348.075 43.0298 348.586 42.3311 348.966C43.2827 349.892 43.9994 351.033 44.4213 352.294C44.8432 353.554 44.9581 354.898 44.7564 356.212C44.5246 357.296 44.0509 358.313 43.3708 359.187C42.6908 360.061 41.822 360.769 40.8297 361.259C41.6855 362.04 42.3326 363.023 42.7119 364.119C43.0912 365.215 43.1905 366.388 43.0009 367.532C42.2156 371.468 37.8731 373.251 34.0157 373.274ZM23.044 326.464C20.3415 326.464 18.4244 328.478 16.8306 333.201C13.9385 340.51 13.8973 348.642 16.7151 355.98C18.0987 359.466 20.4249 362.495 23.4322 364.728C26.4396 366.961 30.0087 368.309 33.7385 368.62C35.8405 368.62 38.1965 367.926 38.3582 366.537C38.5199 365.148 35.9097 362.972 34.2005 362.023C33.7394 361.765 33.3802 361.357 33.1828 360.866C32.9854 360.375 32.9617 359.832 33.1157 359.326C33.2696 358.819 33.5919 358.381 34.0288 358.085C34.4657 357.788 34.991 357.65 35.5171 357.694C37.4342 357.832 39.8133 356.86 40.1367 355.193C40.1862 354.574 40.0861 353.952 39.8449 353.38C39.6036 352.808 39.2284 352.302 38.7508 351.906C37.3685 350.769 35.8074 349.869 34.1312 349.244C33.634 349.003 33.2391 348.592 33.0182 348.085C32.7973 347.578 32.7649 347.009 32.9268 346.48C33.0888 345.951 33.4344 345.497 33.9011 345.202C34.3678 344.906 34.9247 344.788 35.4709 344.868C37.1802 345.146 39.5593 345.401 40.437 344.382C40.6987 343.859 40.7948 343.268 40.7122 342.689C40.6297 342.11 40.3724 341.57 39.975 341.141C38.6668 339.814 37.0922 338.78 35.3554 338.108C34.8249 337.854 34.4113 337.406 34.1988 336.857C33.9864 336.307 33.9911 335.697 34.212 335.151C34.433 334.604 34.8536 334.163 35.3879 333.917C35.9223 333.671 36.5302 333.638 37.0878 333.826C38.2356 334.337 39.4814 334.59 40.7373 334.566C41.4302 334.566 41.9384 333.965 41.9384 333.733C41.9384 333.502 41.4764 332.784 39.6285 331.927C34.587 329.205 29.1189 327.365 23.4598 326.487L23.044 326.464Z" fill="black"/>
<path d="M243.24 329.844C241.554 330.654 239.659 331.881 239.683 333.756C239.775 334.562 240.144 335.312 240.724 335.877C241.305 336.442 242.063 336.789 242.87 336.858C244.494 336.955 246.117 336.661 247.605 336.002C245.496 336.778 243.597 338.039 242.062 339.683C241.302 340.511 240.844 341.571 240.76 342.693C240.676 343.814 240.972 344.932 241.6 345.864C243.24 347.808 246.219 347.554 248.737 347.137C246.852 347.864 245.103 348.905 243.563 350.216C242.8 350.883 242.212 351.728 241.854 352.678C241.495 353.627 241.376 354.65 241.507 355.656C242.085 358.62 245.549 360.286 248.575 360.009C245.85 361.537 242.685 363.898 243.263 366.954C243.84 370.01 247.397 371.028 250.331 370.912C254.499 370.576 258.492 369.084 261.862 366.602C265.231 364.12 267.845 360.747 269.41 356.86C272.447 348.995 272.447 340.278 269.41 332.414C267.816 327.992 265.483 323.755 260.379 324.149C254.379 325.037 248.58 326.964 243.24 329.844Z" fill="#FFC9B0"/>
<path d="M250.007 373.274C246.127 373.274 241.784 371.468 240.999 367.417C240.81 366.272 240.909 365.099 241.288 364.003C241.667 362.907 242.315 361.924 243.17 361.143C242.178 360.654 241.309 359.945 240.629 359.071C239.949 358.197 239.475 357.18 239.244 356.096C239.042 354.782 239.157 353.439 239.579 352.178C240.001 350.918 240.717 349.777 241.669 348.85C240.97 348.47 240.351 347.959 239.844 347.345C238.886 346.02 238.397 344.411 238.455 342.775C238.514 341.139 239.117 339.57 240.168 338.317C239.331 337.866 238.631 337.199 238.14 336.384C237.648 335.57 237.383 334.638 237.373 333.687C237.373 331.372 238.99 329.219 242.246 327.668C247.819 324.66 253.88 322.669 260.148 321.788C267.793 321.186 270.519 328.733 271.535 331.557C274.822 339.966 274.822 349.308 271.535 357.717C269.798 362.005 266.902 365.722 263.173 368.45C259.443 371.178 255.027 372.808 250.423 373.158L250.007 373.274ZM248.575 357.694C249.085 357.695 249.579 357.865 249.982 358.178C250.385 358.491 250.674 358.928 250.803 359.422C250.932 359.916 250.894 360.439 250.696 360.909C250.498 361.379 250.15 361.771 249.707 362.023C247.998 362.972 245.203 364.824 245.55 366.537C245.896 368.25 248.113 368.667 250.169 368.621C253.899 368.309 257.468 366.961 260.475 364.728C263.483 362.495 265.809 359.466 267.193 355.98C270.01 348.642 269.969 340.51 267.077 333.201C265.298 328.2 263.381 326.256 260.402 326.487C254.743 327.365 249.274 329.205 244.233 331.927C242.454 332.784 241.923 333.478 241.923 333.733C241.923 333.988 242.431 334.474 243.124 334.567C244.38 334.59 245.626 334.337 246.774 333.826C247.331 333.638 247.939 333.671 248.474 333.917C249.008 334.163 249.428 334.604 249.649 335.151C249.87 335.697 249.875 336.307 249.663 336.857C249.45 337.406 249.037 337.854 248.506 338.109C246.769 338.78 245.195 339.814 243.886 341.141C243.489 341.57 243.232 342.11 243.149 342.689C243.067 343.268 243.163 343.859 243.424 344.382C244.302 345.424 246.681 345.146 248.391 344.868C248.937 344.788 249.494 344.906 249.96 345.202C250.427 345.497 250.773 345.951 250.935 346.48C251.097 347.009 251.064 347.578 250.843 348.085C250.622 348.592 250.227 349.003 249.73 349.244C248.054 349.869 246.493 350.769 245.111 351.906C244.633 352.302 244.258 352.808 244.017 353.38C243.775 353.952 243.675 354.574 243.725 355.193C244.048 356.86 246.45 357.856 248.344 357.694H248.575Z" fill="black"/>
</svg>
